# xmcd
#
# Track frame offsets:
#	183
#	13683
#	29848
#	45408
#	58283
#	71518
#	88933
#	98675
#	116008
#	130733
#	151965
#	168615
#	182813
#	198938
#
# Disc length: 2862 seconds
# Revision: 2
# Processed by: cddbd v1.5.2PL0 Copyright (c) Steve Scherf et al.
# Submitted via: dBpowerAMP V12.0
#
DISCID=c20b2c0e
DTITLE=Various Artist - Southern Nights
DYEAR=1991
DGENRE=Country
TTITLE0=Don Williams - You're My Best Friend
TTITLE1=Juice Newton - Hurt
TTITLE2=Hank Williams, Jr. - Ain't Misbehavin
TTITLE3=Dwight Yoakam and Buck Owens - Streets of Bakersfield
TTITLE4=Crystal Gayle - Talking in Your Sleep
TTITLE5=Ricky Skaggs - Country Boy
TTITLE6=Waylon Jennings - Theme from the Dukes of Hazzard (Good Ol' Boys)
TTITLE7=Rosanne Cash - The Way We Make a Broken Heart
TTITLE8=George Jones and Merle Haggard - Yesterday's Wine
TTITLE9=K.T. Oslin - Hold Me
TTITLE10=The Judds - Cry Myself to Sleep
TTITLE11=Helen Reddy - Delta Dawn
TTITLE12=Randy Travis - Forever and Ever, Amen
TTITLE13=Willie Nelson - Always on My Mind
EXTD=
EXTT0=
EXTT1=
EXTT2=
EXTT3=
EXTT4=
EXTT5=
EXTT6=
EXTT7=
EXTT8=
EXTT9=
EXTT10=
EXTT11=
EXTT12=
EXTT13=
PLAYORDER=
